<?xml version="1.0" encoding="iso-8859-1"?>
<!-- Generator: Adobe Illustrator 19.0.0, SVG Export Plug-In . SVG Version: 6.00 Build 0)  -->
<svg version="1.1" id="Capa_1" xmlns="http://www.w3.org/2000/svg" xmlns:xlink="http://www.w3.org/1999/xlink" x="0px" y="0px"
	 viewBox="0 0 512 512" style="enable-background:new 0 0 512 512;" xml:space="preserve">
<g>
	<path style="fill:#787D82;" d="M148.22,242.526c-3.297,0-6.467-1.814-8.048-4.967c-2.219-4.437-0.422-9.836,4.015-12.054
		l27.172-13.59c4.446-2.21,9.827-0.422,12.054,4.015c2.219,4.437,0.422,9.836-4.015,12.054l-27.172,13.59
		C150.941,242.221,149.567,242.526,148.22,242.526z"/>
	<path style="fill:#787D82;" d="M363.78,242.526c-1.347,0-2.722-0.305-4.006-0.943l-27.064-13.528
		c-4.437-2.219-6.234-7.617-4.015-12.054c2.21-4.437,7.626-6.225,12.054-4.015l27.064,13.528c4.437,2.219,6.234,7.617,4.015,12.054
		C370.257,240.712,367.077,242.526,363.78,242.526z"/>
</g>
<path style="fill:#8DC79D;" d="M300.912,413.193h-89.825c-24.801,0-44.912-20.112-44.912-44.912l8.982-107.789l-6.063-103.074
	c-1.716-29.094,16.788-55.548,44.697-63.919l0,0c27.531-8.255,56.877-8.255,84.399,0l0,0c27.909,8.372,46.412,34.825,44.697,63.919
	l-6.045,103.074l8.982,107.789C345.825,393.081,325.713,413.193,300.912,413.193z"/>
<rect x="211.088" y="242.526" style="fill:#6B9777;" width="89.825" height="89.825"/>
<g>
	<path style="fill:#B3E4E8;" d="M202.105,188.632l8.982,53.895h89.825l8.982-53.895l-2.767-0.925
		c-33.19-11.066-69.066-11.066-102.256,0L202.105,188.632z"/>
	<polygon style="fill:#B3E4E8;" points="211.088,332.351 202.105,377.263 309.895,377.263 300.912,332.351 	"/>
</g>
<g>
	<path style="fill:#F7BA61;" d="M202.105,152.702c-2.3,0-4.599-0.88-6.351-2.632c-3.512-3.512-3.512-9.189,0-12.701l8.982-8.982
		c3.512-3.512,9.189-3.512,12.701,0c3.512,3.512,3.512,9.189,0,12.701l-8.982,8.982
		C206.704,151.821,204.405,152.702,202.105,152.702z"/>
	<path style="fill:#F7BA61;" d="M309.895,152.702c-2.3,0-4.599-0.88-6.351-2.632l-8.982-8.982c-3.512-3.512-3.512-9.189,0-12.701
		c3.512-3.512,9.189-3.512,12.701,0l8.982,8.982c3.512,3.512,3.512,9.189,0,12.701C314.494,151.821,312.194,152.702,309.895,152.702
		z"/>
</g>
<g>
	<path style="fill:#B3E4E8;" d="M408.702,116.772h-17.965c0-34.663-28.214-62.877-62.877-62.877V35.93
		C372.44,35.93,408.702,72.192,408.702,116.772z"/>
	<path style="fill:#B3E4E8;" d="M444.632,116.772h-17.965c0-54.479-44.328-98.807-98.807-98.807V0
		C392.246,0,444.632,52.386,444.632,116.772z"/>
	<path style="fill:#B3E4E8;" d="M121.263,116.772h-17.965c0-44.58,36.262-80.842,80.842-80.842v17.965
		C149.477,53.895,121.263,82.109,121.263,116.772z"/>
	<path style="fill:#B3E4E8;" d="M85.333,116.772H67.368C67.368,52.386,119.754,0,184.14,0v17.965
		C129.662,17.965,85.333,62.293,85.333,116.772z"/>
	<path style="fill:#B3E4E8;" d="M327.86,476.07v-17.965c34.663,0,62.877-28.214,62.877-62.877h17.965
		C408.702,439.808,372.44,476.07,327.86,476.07z"/>
	<path style="fill:#B3E4E8;" d="M327.86,512v-17.965c54.479,0,98.807-44.328,98.807-98.807h17.965
		C444.632,459.614,392.246,512,327.86,512z"/>
	<path style="fill:#B3E4E8;" d="M184.14,476.07c-44.58,0-80.842-36.262-80.842-80.842h17.965c0,34.663,28.214,62.877,62.877,62.877
		V476.07z"/>
	<path style="fill:#B3E4E8;" d="M184.14,512c-64.386,0-116.772-52.386-116.772-116.772h17.965c0,54.479,44.328,98.807,98.807,98.807
		V512z"/>
</g>
<g>
</g>
<g>
</g>
<g>
</g>
<g>
</g>
<g>
</g>
<g>
</g>
<g>
</g>
<g>
</g>
<g>
</g>
<g>
</g>
<g>
</g>
<g>
</g>
<g>
</g>
<g>
</g>
<g>
</g>
</svg>
