<?xml version="1.0" encoding="iso-8859-1"?>
<!-- Generator: Adobe Illustrator 19.0.0, SVG Export Plug-In . SVG Version: 6.00 Build 0)  -->
<svg version="1.1" id="Capa_1" xmlns="http://www.w3.org/2000/svg" xmlns:xlink="http://www.w3.org/1999/xlink" x="0px" y="0px"
	 viewBox="0 0 512 512" style="enable-background:new 0 0 512 512;" xml:space="preserve">
<g>
	<path style="fill:#787D82;" d="M148.22,242.526c-3.297,0-6.467-1.814-8.048-4.967c-2.219-4.437-0.422-9.836,4.015-12.054
		l27.172-13.59c4.446-2.21,9.827-0.422,12.054,4.015c2.219,4.437,0.422,9.836-4.015,12.054l-27.172,13.59
		C150.941,242.221,149.567,242.526,148.22,242.526z"/>
	<path style="fill:#787D82;" d="M363.78,242.526c-1.347,0-2.722-0.305-4.006-0.943l-27.064-13.528
		c-4.437-2.219-6.234-7.617-4.015-12.054c2.21-4.437,7.626-6.225,12.054-4.015l27.064,13.528c4.437,2.219,6.234,7.617,4.015,12.054
		C370.257,240.712,367.077,242.526,363.78,242.526z"/>
</g>
<path style="fill:#8DC79D;" d="M300.912,413.193h-89.825c-24.801,0-44.912-20.112-44.912-44.912l8.982-107.789l-6.063-103.074
	c-1.716-29.094,16.788-55.548,44.697-63.919l0,0c27.531-8.255,56.877-8.255,84.399,0l0,0c27.909,8.372,46.412,34.825,44.697,63.919
	l-6.045,103.074l8.982,107.789C345.825,393.081,325.713,413.193,300.912,413.193z"/>
<rect x="211.088" y="242.526" style="fill:#6B9777;" width="89.825" height="89.825"/>
<g>
	<path style="fill:#B3E4E8;" d="M202.105,188.632l8.982,53.895h89.825l8.982-53.895l-2.767-0.925
		c-33.19-11.066-69.066-11.066-102.256,0L202.105,188.632z"/>
	<polygon style="fill:#B3E4E8;" points="211.088,332.351 202.105,377.263 309.895,377.263 300.912,332.351 	"/>
</g>
<g>
	<path style="fill:#F7BA61;" d="M202.105,152.702c-2.3,0-4.599-0.88-6.351-2.632c-3.512-3.512-3.512-9.189,0-12.701l8.982-8.982
		c3.512-3.512,9.189-3.512,12.701,0c3.512,3.512,3.512,9.189,0,12.701l-8.982,8.982
		C206.704,151.821,204.405,152.702,202.105,152.702z"/>
	<path style="fill:#F7BA61;" d="M309.895,152.702c-2.3,0-4.599-0.88-6.351-2.632l-8.982-8.982c-3.512-3.512-3.512-9.189,0-12.701
		c3.512-3.512,9.189-3.512,12.701,0l8.982,8.982c3.512,3.512,3.512,9.189,0,12.701C314.494,151.821,312.194,152.702,309.895,152.702
		z"/>
</g>
<g>
	<path style="fill:#B3E4E8;" d="M408.702,116.772h-17.965c0-34.663-28.214-62.877-62.877-62.877V35.93
		C372.44,35.93,408.702,72.192,408.702,116.772z"/>
	<path style="fill:#B3E4E8;" d="M444.632,116.772h-17.965c0-54.479-44.328-98.807-98.807-98.807V0
		C392.246,0,444.632,52.386,444.632,116.772z"/>
	<path style="fill:#B3E4E8;" d="M121.263,116.772h-17.965c0-44.58,36.262-80.842,80.842-80.842v17.965
		C149.477,53.895,121.263,82.109,121.263,116.772z"/>
	<path style="fill:#B3E4E8;" d="M85.333,116.772H67.368C67.368,52.386,119.754,0,184.14,0v17.965
		C129.662,17.965,85.333,62.293,85.333,116.772z"/>
	<path style="fill:#B3E4E8;" d="M327.86,476.07v-17.965c34.663,0,62.877-28.214,62.877-62.877h17.965
		C408.702,439.808,372.44,476.07,327.86,476.07z"/>
	<path style="fill:#B3E4E8;" d="M327.86,512v-17.965c54.479,0,98.807-44.328,98.807-98.807h17.965
		C444.632,459.614,392.246,512,327.86,512z"/>
	<path style="fill:#B3E4E8;" d="M184.14,476.07c-44.58,0-80.842-36.262-80.842-80.842h17.965c0,34.663,28.214,62.877,62.877,62.877
		V476.07z"/>
	<path style="fill:#B3E4E8;" d="M184.14,512c-64.386,0-116.772-52.386-116.772-116.772h17.965c0,54.479,44.328,98.807,98.807,98.807
		V512z"/>
</g>
<path d="M354.771,367.535l-8.92-107.161l1.473-25.025l12.45,6.225c1.284,0.647,2.659,0.952,4.006,0.952
	c3.297,0,6.467-1.814,8.048-4.967c2.219-4.437,0.422-9.836-4.015-12.054l-17.965-8.982c-0.449-0.225-0.925-0.234-1.392-0.377
	l3.422-58.206c1.967-33.397-19.043-63.434-51.092-73.054c-29.301-8.794-60.263-8.794-89.564,0
	c-32.04,9.62-53.05,39.658-51.092,73.054l3.422,58.206c-0.467,0.144-0.943,0.153-1.392,0.377l-17.965,8.982
	c-4.437,2.219-6.234,7.617-4.015,12.054c1.572,3.153,4.743,4.967,8.039,4.967c1.347,0,2.722-0.305,4.006-0.943l12.45-6.225
	l1.473,25.034l-8.956,107.888c0,29.723,24.172,53.895,53.895,53.895h89.825C330.635,422.175,354.807,398.004,354.771,367.535z
	 M300.912,404.211h-89.825c-19.815,0-35.93-16.115-35.966-35.184l8.982-107.789c0.036-0.422,0.045-0.853,0.018-1.276l-6.063-103.074
	c-1.473-25.043,14.291-47.58,38.319-54.793c12.962-3.889,26.292-5.83,39.622-5.83s26.66,1.949,39.622,5.83
	c24.028,7.213,39.792,29.75,38.319,54.793l-6.063,103.074c-0.027,0.422-0.018,0.853,0.018,1.276l8.947,107.044
	C336.842,388.096,320.728,404.211,300.912,404.211z"/>
<path d="M318.751,190.105c0.728-4.357-1.823-8.596-6.018-9.988l-2.767-0.925c-34.807-11.614-73.144-11.614-107.951,0l-2.767,0.925
	c-4.195,1.392-6.746,5.632-6.018,9.988l8.875,53.158v88.199l-8.803,44.032c-0.53,2.641,0.162,5.38,1.859,7.455
	c1.707,2.084,4.249,3.297,6.943,3.297h107.789c2.695,0,5.237-1.213,6.943-3.288c1.698-2.075,2.389-4.815,1.859-7.455l-8.803-44.041
	v-88.199L318.751,190.105z M220.07,251.509h71.86v71.86h-71.86V251.509z M299.763,194.803l-6.458,38.741h-74.617l-6.458-38.741
	C240.64,186.341,271.36,186.341,299.763,194.803z M213.064,368.281l5.389-26.947h75.102l5.389,26.947H213.064z"/>
<path d="M202.105,152.702c2.299,0,4.599-0.88,6.351-2.632l8.982-8.982c3.512-3.512,3.512-9.189,0-12.701
	c-3.512-3.512-9.189-3.512-12.701,0l-8.982,8.982c-3.512,3.512-3.512,9.189,0,12.701
	C197.506,151.821,199.806,152.702,202.105,152.702z"/>
<path d="M307.263,128.386c-3.512-3.512-9.189-3.512-12.701,0c-3.512,3.512-3.512,9.189,0,12.701l8.982,8.982
	c1.752,1.752,4.051,2.632,6.351,2.632c2.299,0,4.599-0.88,6.351-2.632c3.512-3.512,3.512-9.189,0-12.701L307.263,128.386z"/>
<path d="M327.86,35.93v17.965c34.663,0,62.877,28.214,62.877,62.877h17.965C408.702,72.192,372.44,35.93,327.86,35.93z"/>
<path d="M327.86,0v17.965c54.479,0,98.807,44.328,98.807,98.807h17.965C444.632,52.386,392.246,0,327.86,0z"/>
<path d="M121.263,116.772c0-34.663,28.214-62.877,62.877-62.877V35.93c-44.58,0-80.842,36.262-80.842,80.842H121.263z"/>
<path d="M184.14,0C119.754,0,67.368,52.386,67.368,116.772h17.965c0-54.479,44.328-98.807,98.807-98.807V0z"/>
<path d="M327.86,458.105v17.965c44.58,0,80.842-36.262,80.842-80.842h-17.965C390.737,429.891,362.523,458.105,327.86,458.105z"/>
<path d="M327.86,494.035V512c64.386,0,116.772-52.386,116.772-116.772h-17.965C426.667,449.707,382.338,494.035,327.86,494.035z"/>
<path d="M121.263,395.228h-17.965c0,44.58,36.262,80.842,80.842,80.842v-17.965C149.477,458.105,121.263,429.891,121.263,395.228z"
	/>
<path d="M85.333,395.228H67.368C67.368,459.614,119.754,512,184.14,512v-17.965C129.662,494.035,85.333,449.707,85.333,395.228z"/>
<g>
</g>
<g>
</g>
<g>
</g>
<g>
</g>
<g>
</g>
<g>
</g>
<g>
</g>
<g>
</g>
<g>
</g>
<g>
</g>
<g>
</g>
<g>
</g>
<g>
</g>
<g>
</g>
<g>
</g>
</svg>
